<svg width="58" height="58" viewBox="0 0 58 58" fill="none" xmlns="http://www.w3.org/2000/svg">
<g clip-path="url(#clip0_623_521)">
<circle cx="28.1077" cy="29.0003" r="28.1077" fill="#6061A2"/>
<path d="M29 58C45.0201 58 58 45.0201 58 29C58 12.9799 45.0201 0 29 0C12.9799 0 0 12.9799 0 29C0 45.0201 12.9799 58 29 58ZM13.2699 28.3717L41.2308 17.5909C42.5285 17.1221 43.6619 17.9075 43.2414 19.8698L43.2438 19.8674L38.483 42.2965C38.1302 43.8867 37.1853 44.2733 35.8633 43.5242L28.6133 38.1809L25.1164 41.5498C24.7297 41.9364 24.4035 42.2627 23.6543 42.2627L24.1691 34.8846L37.6058 22.7457C38.1906 22.2309 37.4753 21.9409 36.7043 22.4533L20.0994 32.9077L12.9413 30.6748C11.3873 30.1818 11.3535 29.1208 13.2699 28.3717Z" fill="white"/>
</g>
<defs>
<clipPath id="clip0_623_521">
<rect width="58" height="58" fill="white"/>
</clipPath>
</defs>
</svg>
