<svg width="58" height="58" viewBox="0 0 58 58" fill="none" xmlns="http://www.w3.org/2000/svg">
<g clip-path="url(#clip0_623_524)">
<circle cx="29" cy="29" r="25" fill="#6061A2"/>
<path d="M16.4639 15.2524C12.885 19.6817 12.4374 34.0029 16.4639 38.0294C17.3629 38.9283 18.7346 39.6215 20.3878 40.1228L20.3756 47.2742C20.3753 47.3499 20.3982 47.424 20.4411 47.4864C20.4841 47.5489 20.5451 47.5967 20.6159 47.6236C20.6868 47.6504 20.7641 47.655 20.8377 47.6368C20.9112 47.6185 20.9774 47.5782 21.0275 47.5213L26.6593 41.0964C32.3016 41.3456 38.4865 40.2345 41.2159 38.0294C45.6452 34.4505 45.2424 19.2787 41.2159 15.2523C36.84 10.8768 20.353 10.4394 16.4639 15.2524ZM28.814 16.0783C34.241 16.4373 37.9466 20.4608 38.2038 26.2784C38.2078 26.3385 38.1997 26.3989 38.1801 26.4559C38.1605 26.5129 38.1296 26.5655 38.0894 26.6104C38.0493 26.6554 38.0005 26.6919 37.946 26.7177C37.8915 26.7436 37.8324 26.7583 37.7722 26.7611C37.712 26.7638 37.6518 26.7545 37.5952 26.7337C37.5386 26.7129 37.4867 26.6809 37.4426 26.6398C37.3985 26.5987 37.3631 26.5492 37.3383 26.4942C37.3136 26.4392 37.3001 26.3798 37.2987 26.3195C37.0661 20.9138 33.7658 17.3084 28.7552 16.9824C28.6949 16.9799 28.6357 16.9653 28.581 16.9396C28.5264 16.9138 28.4775 16.8774 28.4371 16.8325C28.3967 16.7876 28.3658 16.7351 28.346 16.678C28.3262 16.621 28.3181 16.5605 28.322 16.5003C28.3259 16.44 28.3418 16.3811 28.3688 16.3271C28.3958 16.2731 28.4333 16.225 28.4792 16.1857C28.525 16.1464 28.5782 16.1166 28.6357 16.0982C28.6932 16.0798 28.7538 16.073 28.814 16.0783ZM29.6004 20.0601C29.5407 20.0548 29.4826 20.0376 29.4296 20.0096C29.3765 19.9816 29.3296 19.9434 29.2914 19.8971C29.2533 19.8509 29.2247 19.7975 29.2073 19.7401C29.19 19.6827 29.1842 19.6224 29.1902 19.5628C29.1963 19.5031 29.2142 19.4453 29.2428 19.3926C29.2714 19.3399 29.3102 19.2934 29.357 19.2558C29.4037 19.2182 29.4574 19.1903 29.515 19.1736C29.5726 19.1569 29.6329 19.1518 29.6925 19.1586C32.8823 19.4573 35.0655 21.8321 35.2879 25.252C35.2913 25.313 35.2824 25.3741 35.2615 25.4315C35.2406 25.4889 35.2083 25.5415 35.1666 25.586C35.1248 25.6306 35.0744 25.6662 35.0184 25.6907C34.9624 25.7152 34.9021 25.728 34.841 25.7285H34.8402C34.7238 25.7295 34.6114 25.6857 34.5264 25.6062C34.4413 25.5267 34.39 25.4176 34.3831 25.3013C34.1886 22.3148 32.3606 20.3124 29.6004 20.0601ZM32.3742 25.2937H32.3677C32.2569 25.2951 32.1495 25.2554 32.0661 25.1824C31.9828 25.1094 31.9293 25.0081 31.9161 24.898C31.7695 23.6713 31.0161 22.8342 29.8953 22.6494C29.7861 22.633 29.6867 22.5776 29.6154 22.4933C29.5441 22.4091 29.5059 22.3018 29.5078 22.1914V22.1856C29.5098 22.1211 29.5256 22.0578 29.5541 21.9999C29.5826 21.9419 29.6231 21.8908 29.673 21.8498C29.7229 21.8089 29.7809 21.7791 29.8433 21.7624C29.9056 21.7458 29.9708 21.7426 30.0345 21.7532C31.5667 21.9987 32.6246 23.1537 32.8169 24.7974C32.8236 24.8597 32.8172 24.9228 32.798 24.9824C32.7789 25.0421 32.7475 25.0971 32.7058 25.1439C32.6642 25.1907 32.6132 25.2282 32.5561 25.2541C32.499 25.28 32.4372 25.2936 32.3745 25.2942L32.3742 25.2937ZM38.2216 34.6712C37.4286 36.2411 35.7294 37.8271 34.2567 37.2925C31.9904 36.4698 28.8365 34.8162 26.4323 32.8786C21.3284 28.776 19.7256 23.336 18.8502 21.6368C18.1705 19.3622 21.4022 17.6064 21.4022 17.6064C22.0981 17.2333 22.7729 17.3571 23.2261 17.9068C23.6478 18.487 24.4914 19.2537 25.7357 21.4711C26.2001 22.3102 25.915 23.1703 25.451 23.5328C24.8345 24.034 24.0741 24.4605 24.1329 25.3667C24.1329 25.3667 25.4932 30.589 30.576 31.9143C31.4709 31.971 31.8941 31.1801 32.3792 30.5674C32.7836 30.01 33.6899 29.8967 34.4144 30.2773C35.3947 30.7924 36.9768 31.9248 37.9261 32.8365C38.4641 33.2831 38.5843 33.9534 38.2216 34.6716V34.6712Z" fill="white"/>
<path d="M29 0.679688C13.3591 0.679688 0.679688 13.3591 0.679688 29C0.679688 44.6409 13.3591 57.3203 29 57.3203C44.6409 57.3203 57.3203 44.6409 57.3203 29C57.3203 13.3591 44.6409 0.679688 29 0.679688ZM47.1746 28.9314C47.011 32.0233 46.2506 37.6027 42.9968 40.2321C39.5923 42.9831 33.1383 43.9632 28.2334 43.9632C27.6302 43.9632 26.8471 43.9468 25.9536 43.8912L22.0525 48.4629C21.0751 49.6081 19.2008 48.8911 19.2375 47.3859L19.3508 42.7559C17.4902 42.1695 15.7371 41.3059 14.4628 40.0319C11.0371 36.606 10.7472 29.6075 10.7812 26.7576C10.807 24.6196 11.1343 17.3434 14.2623 13.4722C17.5441 9.41107 25.1663 8.97256 28.2912 8.97256C33.4402 8.97256 40.0658 10.0962 43.2193 13.2497C44.7136 14.7439 45.8222 17.108 46.5143 20.2761C47.095 22.9334 47.3295 26.0072 47.1746 28.9314Z" fill="white"/>
</g>
<defs>
<clipPath id="clip0_623_524">
<rect width="58" height="58" fill="white"/>
</clipPath>
</defs>
</svg>
