<svg width="58" height="58" viewBox="0 0 58 58" fill="none" xmlns="http://www.w3.org/2000/svg">
<g clip-path="url(#clip0_623_498)">
<circle cx="29" cy="29" r="24" fill="#6061A2"/>
<path d="M29 0C12.9862 0 0 12.9862 0 29C0 45.0138 12.9862 58 29 58C45.0138 58 58 45.0138 58 29C58 12.9862 45.0138 0 29 0ZM29.6146 45.8847C29.6142 45.8847 29.6151 45.8847 29.6146 45.8847H29.6076C26.7025 45.8833 23.8479 45.155 21.3128 43.7726L12.1118 46.1856L14.5743 37.1939C13.0552 34.5627 12.2561 31.5776 12.2574 28.5194C12.2614 18.9525 20.0477 11.1693 29.6146 11.1693C34.2574 11.171 38.6156 12.9782 41.8924 16.2576C45.1696 19.5375 46.9732 23.897 46.9715 28.5332C46.9675 38.1006 39.1803 45.8847 29.6146 45.8847Z" fill="white"/>
<path d="M29.6202 14.0996C21.6627 14.0996 15.191 20.5686 15.1875 28.5204C15.1866 31.2453 15.9495 33.899 17.3934 36.1952L17.7363 36.7408L16.2787 42.0628L21.7388 40.6309L22.2658 40.9433C24.4805 42.2575 27.0196 42.9527 29.6083 42.9536H29.614C37.5654 42.9536 44.037 36.4842 44.0406 28.5319C44.0419 24.6781 42.5427 21.0549 39.8191 18.3291C37.0955 15.6032 33.4731 14.1009 29.6202 14.0996ZM38.1057 34.7208C37.7442 35.7332 36.0118 36.6576 35.1785 36.7824C34.4312 36.8939 33.486 36.9404 32.447 36.6107C31.8168 36.4107 31.0093 36.1439 29.9742 35.6974C25.624 33.8194 22.7827 29.4404 22.5658 29.151C22.349 28.8616 20.7949 26.7999 20.7949 24.6657C20.7949 22.532 21.9153 21.4828 22.3127 21.0491C22.7105 20.6151 23.1805 20.5066 23.4694 20.5066C23.7584 20.5066 24.0478 20.5093 24.3004 20.5217C24.5668 20.535 24.9244 20.4203 25.2762 21.266C25.6377 22.1342 26.505 24.2679 26.6134 24.4848C26.7218 24.702 26.794 24.9551 26.6497 25.2445C26.505 25.5339 26.0244 26.1583 25.5656 26.7274C25.3731 26.9659 25.1222 27.1783 25.3753 27.6124C25.628 28.046 26.4988 29.466 27.7878 30.6157C29.4446 32.0927 30.842 32.5503 31.2756 32.7676C31.7089 32.9844 31.962 32.9481 32.2151 32.6591C32.4678 32.3698 33.2992 31.3931 33.5882 30.959C33.8771 30.5249 34.1665 30.5975 34.5639 30.7422C34.9617 30.8865 37.0937 31.9357 37.5274 32.1525C37.961 32.3698 38.25 32.4782 38.3584 32.6591C38.4672 32.8401 38.4672 33.7079 38.1057 34.7208Z" fill="white"/>
</g>
<defs>
<clipPath id="clip0_623_498">
<rect width="58" height="58" fill="white"/>
</clipPath>
</defs>
</svg>
