<svg width="58" height="58" viewBox="0 0 58 58" fill="none" xmlns="http://www.w3.org/2000/svg">
<rect width="58" height="58" rx="29" fill="white"/>
<path d="M29 17.1205C32.8434 17.1205 33.3675 17.1205 34.9398 17.1205C36.3374 17.1205 37.0361 17.4699 37.5602 17.6446C38.259 17.994 38.7831 18.1687 39.3072 18.6928C39.8313 19.2169 40.1807 19.741 40.3554 20.4398C40.5301 20.9639 40.7048 21.6627 40.8795 23.0602C40.8795 24.6325 40.8795 24.9819 40.8795 29C40.8795 33.0181 40.8795 33.3675 40.8795 34.9398C40.8795 36.3374 40.5301 37.0361 40.3554 37.5602C40.006 38.259 39.8313 38.7831 39.3072 39.3072C38.7831 39.8313 38.259 40.1807 37.5602 40.3554C37.0361 40.5301 36.3374 40.7048 34.9398 40.8795C33.3675 40.8795 33.0181 40.8795 29 40.8795C24.9819 40.8795 24.6325 40.8795 23.0602 40.8795C21.6627 40.8795 20.9639 40.5301 20.4398 40.3554C19.741 40.006 19.2169 39.8313 18.6928 39.3072C18.1687 38.7831 17.8193 38.259 17.6446 37.5602C17.4699 37.0361 17.2952 36.3374 17.1205 34.9398C17.1205 33.3675 17.1205 33.0181 17.1205 29C17.1205 24.9819 17.1205 24.6325 17.1205 23.0602C17.1205 21.6627 17.4699 20.9639 17.6446 20.4398C17.994 19.741 18.1687 19.2169 18.6928 18.6928C19.2169 18.1687 19.741 17.8193 20.4398 17.6446C20.9639 17.4699 21.6627 17.2952 23.0602 17.1205C24.6325 17.1205 25.1566 17.1205 29 17.1205ZM29 14.5C24.9819 14.5 24.6325 14.5 23.0602 14.5C21.488 14.5 20.4398 14.8494 19.5663 15.1988C18.6928 15.5482 17.8193 16.0723 16.9458 16.9458C16.0723 17.8193 15.7229 18.5181 15.1988 19.5663C14.8494 20.4398 14.6747 21.488 14.5 23.0602C14.5 24.6325 14.5 25.1566 14.5 29C14.5 33.0181 14.5 33.3675 14.5 34.9398C14.5 36.512 14.8494 37.5602 15.1988 38.4337C15.5482 39.3072 16.0723 40.1807 16.9458 41.0542C17.8193 41.9277 18.5181 42.2771 19.5663 42.8012C20.4398 43.1506 21.488 43.3253 23.0602 43.5C24.6325 43.5 25.1566 43.5 29 43.5C32.8434 43.5 33.3675 43.5 34.9398 43.5C36.512 43.5 37.5602 43.1506 38.4337 42.8012C39.3072 42.4518 40.1807 41.9277 41.0542 41.0542C41.9277 40.1807 42.2771 39.4819 42.8012 38.4337C43.1506 37.5602 43.3253 36.512 43.5 34.9398C43.5 33.3675 43.5 32.8434 43.5 29C43.5 25.1566 43.5 24.6325 43.5 23.0602C43.5 21.488 43.1506 20.4398 42.8012 19.5663C42.4518 18.6928 41.9277 17.8193 41.0542 16.9458C40.1807 16.0723 39.4819 15.7229 38.4337 15.1988C37.5602 14.8494 36.512 14.6747 34.9398 14.5C33.3675 14.5 33.0181 14.5 29 14.5Z" fill="#6061A2"/>
<path d="M29 21.488C24.8072 21.488 21.488 24.8072 21.488 29C21.488 33.1928 24.8072 36.512 29 36.512C33.1928 36.512 36.512 33.1928 36.512 29C36.512 24.8072 33.1928 21.488 29 21.488ZM29 33.8916C26.3795 33.8916 24.1084 31.7952 24.1084 29C24.1084 26.3795 26.2048 24.1084 29 24.1084C31.6205 24.1084 33.8916 26.2048 33.8916 29C33.8916 31.6205 31.6205 33.8916 29 33.8916Z" fill="#6061A2"/>
<path d="M36.6867 23.0602C37.6516 23.0602 38.4337 22.2781 38.4337 21.3133C38.4337 20.3484 37.6516 19.5663 36.6867 19.5663C35.7219 19.5663 34.9398 20.3484 34.9398 21.3133C34.9398 22.2781 35.7219 23.0602 36.6867 23.0602Z" fill="#6061A2"/>
</svg>
