<svg width="44" height="44" viewBox="0 0 44 44" fill="none" xmlns="http://www.w3.org/2000/svg">
<g clip-path="url(#clip0_623_537)">
<ellipse cx="22.0029" cy="21.4223" rx="18.5263" ry="16.7895" fill="#6061A2"/>
<path fill-rule="evenodd" clip-rule="evenodd" d="M22 44C9.86915 44 0 34.1309 0 22C0 9.86915 9.86915 0 22 0C34.1309 0 44 9.86915 44 22C44 34.1309 34.1309 44 22 44Z" fill="white"/>
<path d="M27.0056 24.8392C29.8787 20.3308 29.5175 20.8933 29.6003 20.7757C30.6464 19.3003 31.1992 17.5639 31.1992 15.7539C31.1992 10.954 27.3042 7 22.498 7C17.7076 7 13.7969 10.9462 13.7969 15.7539C13.7969 17.5627 14.3613 19.3446 15.4417 20.8399L17.9904 24.8393C15.2654 25.2581 10.6328 26.506 10.6328 29.2539C10.6328 30.2556 11.2866 31.6831 14.4013 32.7955C16.5762 33.5722 19.4516 34 22.498 34C28.1947 34 34.3633 32.3931 34.3633 29.2539C34.3633 26.5055 29.7362 25.2589 27.0056 24.8392ZM16.7631 19.9698C16.7544 19.9562 16.7454 19.9429 16.7359 19.9298C15.8369 18.6931 15.3789 17.2274 15.3789 15.7539C15.3789 11.7979 18.5644 8.58203 22.498 8.58203C26.4235 8.58203 29.6172 11.7993 29.6172 15.7539C29.6172 17.2297 29.1678 18.6457 28.3175 19.8498C28.2413 19.9503 28.6389 19.3327 22.498 28.9686L16.7631 19.9698ZM22.498 32.418C16.2757 32.418 12.2148 30.589 12.2148 29.2539C12.2148 28.3566 14.3014 26.8811 18.9252 26.306L21.831 30.8656C21.9762 31.0935 22.2277 31.2314 22.498 31.2314C22.7683 31.2314 23.0199 31.0934 23.165 30.8656L26.0707 26.306C30.6946 26.8811 32.7812 28.3566 32.7812 29.2539C32.7812 30.5776 28.7569 32.418 22.498 32.418Z" fill="#6061A2"/>
<path d="M22.502 11.7988C20.3211 11.7988 18.5469 13.5731 18.5469 15.7539C18.5469 17.9347 20.3211 19.709 22.502 19.709C24.6828 19.709 26.457 17.9347 26.457 15.7539C26.457 13.5731 24.6828 11.7988 22.502 11.7988ZM22.502 18.127C21.1935 18.127 20.1289 17.0624 20.1289 15.7539C20.1289 14.4454 21.1935 13.3809 22.502 13.3809C23.8105 13.3809 24.875 14.4454 24.875 15.7539C24.875 17.0624 23.8105 18.127 22.502 18.127Z" fill="#6061A2"/>
</g>
<defs>
<clipPath id="clip0_623_537">
<rect width="44" height="44" fill="white"/>
</clipPath>
</defs>
</svg>
