<svg width="166" height="60" viewBox="0 0 166 60" fill="none" xmlns="http://www.w3.org/2000/svg">
<rect width="166" height="60" rx="30" fill="white"/>
<path d="M33.64 42H18.376L18.376 17.988H23.488L23.488 37.5H33.64V42ZM54.2118 42L37.2197 42V17.988L54.2118 17.988V22.488L42.3318 22.488V27.564L53.9598 27.564L53.9598 32.064L42.3318 32.064V37.5L54.2118 37.5V42ZM79.988 42H73.868L67.856 33.216L61.808 42H55.724L64.436 29.688L56.264 17.988H62.348L67.856 26.196L73.292 17.988L79.448 17.988L71.276 29.652L79.988 42ZM87.3669 42L82.2549 42V17.988L93.4869 17.988C96.0069 17.988 97.9749 18.732 99.3909 20.22C100.831 21.684 101.551 23.52 101.551 25.728C101.551 27.912 100.831 29.748 99.3909 31.236C97.9509 32.724 95.9829 33.468 93.4869 33.468H87.3669V42ZM92.8029 28.968C93.8349 28.968 94.6749 28.68 95.3229 28.104C95.9949 27.504 96.3309 26.712 96.3309 25.728C96.3309 24.744 95.9949 23.964 95.3229 23.388C94.6749 22.788 93.8349 22.488 92.8029 22.488L87.3669 22.488V28.968H92.8029ZM124.16 42H118.292L113.576 33.468H109.832V42H104.72V17.988H115.952C118.424 17.988 120.38 18.708 121.82 20.148C123.284 21.588 124.016 23.448 124.016 25.728C124.016 27.696 123.5 29.292 122.468 30.516C121.46 31.74 120.224 32.52 118.76 32.856L124.16 42ZM115.196 28.968C116.252 28.968 117.116 28.68 117.788 28.104C118.46 27.504 118.796 26.712 118.796 25.728C118.796 24.744 118.46 23.964 117.788 23.388C117.116 22.788 116.252 22.488 115.196 22.488H109.832V28.968H115.196ZM139.229 42.432C135.605 42.432 132.605 41.268 130.229 38.94C127.877 36.588 126.701 33.612 126.701 30.012C126.701 26.412 127.877 23.448 130.229 21.12C132.605 18.768 135.605 17.592 139.229 17.592C142.877 17.592 145.877 18.756 148.229 21.084C150.605 23.412 151.793 26.388 151.793 30.012C151.793 33.636 150.605 36.612 148.229 38.94C145.877 41.268 142.877 42.432 139.229 42.432ZM133.937 35.664C135.281 37.152 137.045 37.896 139.229 37.896C141.413 37.896 143.177 37.152 144.521 35.664C145.865 34.176 146.537 32.292 146.537 30.012C146.537 27.732 145.865 25.848 144.521 24.36C143.177 22.872 141.413 22.128 139.229 22.128C137.045 22.128 135.281 22.872 133.937 24.36C132.617 25.848 131.957 27.732 131.957 30.012C131.957 32.292 132.617 34.176 133.937 35.664Z" fill="#323232"/>
</svg>
