<svg width="44" height="44" viewBox="0 0 44 44" fill="none" xmlns="http://www.w3.org/2000/svg">
<g clip-path="url(#clip0_623_529)">
<circle cx="20.266" cy="22.5785" r="16.7895" fill="#6061A2"/>
<path d="M37.5539 6.44106C28.9611 -2.14916 15.0314 -2.1471 6.44118 6.44579C-2.14904 15.0387 -2.14698 28.9683 6.44591 37.5585C15.0388 46.1487 28.9684 46.1467 37.5586 37.5538C41.6841 33.427 44.0012 27.8303 43.9999 21.9951C43.9987 16.1608 41.68 10.5659 37.5539 6.44106ZM33.3181 30.6455C33.3172 30.6465 33.3162 30.6475 33.3152 30.6484V30.6411L32.2005 31.7484C30.7589 33.2083 28.6594 33.8089 26.6638 33.3324C24.6533 32.7943 22.7421 31.9377 21.0025 30.7951C19.3864 29.7623 17.8887 28.5548 16.5365 27.1944C15.2924 25.9594 14.1747 24.6033 13.1998 23.1464C12.1335 21.5788 11.2895 19.871 10.6918 18.0718C10.0066 15.958 10.5744 13.6387 12.1585 12.0805L13.4638 10.7751C13.8267 10.4106 14.4164 10.4093 14.7809 10.7722C14.7818 10.7732 14.7829 10.7741 14.7838 10.7751L18.9051 14.8965C19.2697 15.2594 19.271 15.8491 18.9081 16.2135C18.9071 16.2145 18.9062 16.2154 18.9051 16.2164L16.4851 18.6364C15.7908 19.3233 15.7034 20.4147 16.2798 21.2031C17.1551 22.4044 18.1237 23.5347 19.1765 24.5838C20.3503 25.7627 21.6264 26.8351 22.9898 27.7885C23.7776 28.338 24.8456 28.2454 25.5271 27.5685L27.8664 25.1925C28.2293 24.828 28.819 24.8267 29.1835 25.1896C29.1845 25.1906 29.1854 25.1915 29.1864 25.1925L33.3151 29.3285C33.6798 29.6914 33.681 30.281 33.3181 30.6455Z" fill="white"/>
</g>
<defs>
<clipPath id="clip0_623_529">
<rect width="44" height="44" fill="white"/>
</clipPath>
</defs>
</svg>
